<svg xmlns="http://www.w3.org/2000/svg" xmlns:xlink="http://www.w3.org/1999/xlink" width="262.96mm" height="61.08mm" viewBox="0 0 745.39 173.14"><defs><linearGradient id="a" x1="40.57" y1="132.58" x2="53.14" y2="120.01" gradientUnits="userSpaceOnUse"><stop offset="0" stop-color="#648c00"/><stop offset="1" stop-color="#73aa19"/></linearGradient></defs><path d="M271.58,120.06H253.73q.63-20.88.63-36.21h-31.8q0,13.75.63,36.21H205.34q.81-20.82.82-43,0-22.39-.82-39.18h17.85q-.75,17.73-.76,32.81h32q0-13.32-.75-32.81h17.85q-.88,16-.88,39.18Q270.7,101.26,271.58,120.06Z" style="fill:#333"/><path d="M339.65,83.66c0,2.15-.13,4.94-.38,8.39l-40.63.7a18.58,18.58,0,0,0,6.12,11.86q5.24,4.73,13.75,4.73a78.5,78.5,0,0,0,20.13-2.84l-1.26,12.24q-8.72,3.15-21.58,3.15-16.28,0-24.95-9.15a30.84,30.84,0,0,1-8.68-22,35.25,35.25,0,0,1,8.24-23.31q8.23-9.89,22.87-9.88,13.37,0,19.87,7.26T339.65,83.66Zm-14.76-.57q0-14.5-12.37-14.51-11.81,0-14,15Z" style="fill:#333"/><path d="M367,120.06H349.8q.94-21.63.95-46.87a377.27,377.27,0,0,0-2-41.83l18.24-1q-.94,17.85-.95,42.84Q366.08,98.56,367,120.06Z" style="fill:#333"/><path d="M439.51,87.51a38.79,38.79,0,0,1-7.82,24q-7.83,10.35-21.39,10.34-10.1,0-13.88-4.29h-.76q0,15.47.45,31.3H379q1.13-18.12,1.13-41.77,0-30.54-3.28-46.56L393,58.8l.95,5.43h1Q401.66,58,413.27,58q12.11,0,19.17,8.74A32.06,32.06,0,0,1,439.51,87.51Zm-16.78,1.64a23.52,23.52,0,0,0-4-13.69,12.63,12.63,0,0,0-11-5.74q-8.71,0-12.75,5.11.95,17.73,1,32.49a16.27,16.27,0,0,0,10.28,3.09q8.4,0,12.43-6.21A27.06,27.06,0,0,0,422.73,89.15Z" style="fill:#333"/><path d="M521.56,34h-55.2a14.61,14.61,0,0,0-14.61,14.61V109a14.61,14.61,0,0,0,14.61,14.61h55.2A14.61,14.61,0,0,0,536.17,109V48.64A14.61,14.61,0,0,0,521.56,34ZM520,111.43H507.63q0-2-13.72-21.6-14.37-20.6-16.36-28.18h-.8A176,176,0,0,1,478,81.4q0,12.33.7,30H466.43q.75-15.47.75-34,0-18.21-.75-31h14.81q0,2.64,12.32,21.1,13.13,19.59,15.07,26.58h.74a190.35,190.35,0,0,1-1.19-20q0-13.52-.7-27.73H520q-.71,12.36-.7,31T520,111.43Z" style="fill:#333"/><path d="M619.28,76.15a46.58,46.58,0,0,1-11.48,31.3q-11.49,13.36-32.18,13.37-9.35,0-25.74-.76.82-19.05.82-43,0-23-.82-39.18h11q2.72,0,8.08-.19c3.57-.12,5.9-.19,7-.19q22.77,0,33,11.36A39.27,39.27,0,0,1,619.28,76.15Zm-17.23,2.72q0-12.12-7.06-20.41t-21.58-8.3a65.91,65.91,0,0,0-7.44.57q.63,12.62.63,26.37,0,15.08.63,29.9a41.47,41.47,0,0,0,8.2.82q13.56,0,20.09-8.42T602.05,78.87Z" style="fill:#333"/><path d="M689.11,88.71q0,15.9-9.77,24.86a33,33,0,0,1-23,9,31.09,31.09,0,0,1-21.64-8.17q-9-8.16-9-23,0-16,9.84-25a33.09,33.09,0,0,1,23.09-9,30.78,30.78,0,0,1,21.54,8.24Q689.12,73.81,689.11,88.71ZM672.65,90.6q0-9.15-4.29-15.36T657.19,69a12.86,12.86,0,0,0-10.88,5.81q-4.2,5.81-4.2,14.51,0,9.15,4.29,15.36t11.17,6.22a12.87,12.87,0,0,0,10.88-5.81Q672.65,99.31,672.65,90.6Z" style="fill:#333"/><path d="M745.39,106.81l-1.08,12.06q-5.73,3-15.58,3-16.28,0-25-9.08A30.35,30.35,0,0,1,695,91a32.92,32.92,0,0,1,9.15-23.12q9.14-9.87,25-9.88A49.31,49.31,0,0,1,743,59.75l-2.15,12.87a33.71,33.71,0,0,0-13-2.4q-7.64,0-12.05,5.4a20.23,20.23,0,0,0-4.42,13.28,21.16,21.16,0,0,0,5.24,14.51q5.24,5.93,14.82,5.93A49.66,49.66,0,0,0,745.39,106.81Z" style="fill:#333"/><path d="M165.57,93.82a5,5,0,0,0-7.13,0L91.77,160.49a8.8,8.8,0,0,1-12.44-12.44L146,81.38a5,5,0,0,0,0-7.13L79.33,7.58a5,5,0,0,0-7.13,0L5.53,74.25a18.88,18.88,0,0,0,0,26.7L72.2,167.62h0a18.9,18.9,0,0,0,26.69,0L165.57,101A5,5,0,0,0,165.57,93.82ZM64,67.46v2.63H51.74V67.46c0-17,6.35-20.12,25-20.12,14.44,0,23,2.74,23,20.6,0,10.75-.7,14.55-11.73,19.14-5.17,2.15-6.84,2.74-6.84,9v1.66H68.9V96.07c0-10.45.31-12.6,9.49-16.6,6.73-2.93,9.08-3.23,9.08-11.53,0-9.37-2.34-10.35-11.22-10.35C66.19,57.59,63.75,58.87,64,67.46Zm4.86,53.6V107.69H81.21v13.37Z" style="fill:url(#a)"/></svg>